<?xml version="1.0" ?><svg xmlns="http://www.w3.org/2000/svg" xmlns:xlink="http://www.w3.org/1999/xlink" version="1.0" viewBox="0 0 48 48" enable-background="new 0 0 48 48" xml:space="preserve"><g id="Layer_1"/><g id="_x32_5_x5F_Interview"><path d="M14.265,32c-1.747,0-3.389-0.931-4.287-2.428l-1.835-3.058c-0.284-0.474-0.131-1.088,0.343-1.372   c0.474-0.285,1.088-0.131,1.372,0.343l1.835,3.058C12.231,29.441,13.217,30,14.265,30H18c0.551,0,1-0.448,1-1s-0.449-1-1-1h-2.419   c-0.716,0-1.381-0.386-1.737-1.008l-2.56-4.48C10.75,21.579,9.752,21,8.679,21H6c-0.551,0-1,0.449-1,1v14   c0,0.313,0.149,0.612,0.399,0.799L8.6,39.2c0.442,0.331,0.531,0.958,0.2,1.399C8.604,40.862,8.303,41,7.999,41   C7.791,41,7.58,40.935,7.4,40.8l-3.2-2.4C3.449,37.837,3,36.94,3,36V22c0-1.654,1.346-3,3-3h2.679c1.79,0,3.453,0.965,4.341,2.52   L15.58,26H18c1.654,0,3,1.346,3,3s-1.346,3-3,3H14.265z M4,12c0-2.757,1.794-5,4-5s4,2.243,4,5s-1.794,5-4,5S4,14.757,4,12z M6,12   c0,1.626,0.916,3,2,3s2-1.374,2-3S9.084,9,8,9S6,10.374,6,12z M34,34H14c-1.103,0-2,0.897-2,2v4c0,0.553,0.448,1,1,1s1-0.447,1-1   v-4h20v4c0,0.553,0.447,1,1,1s1-0.447,1-1v-4C36,34.897,35.103,34,34,34z M42,19h-2.679c-1.79,0-3.453,0.965-4.341,2.52L32.42,26   H30c-1.654,0-3,1.346-3,3s1.346,3,3,3h3.735c1.746,0,3.39-0.931,4.287-2.428l1.835-3.058c0.284-0.474,0.131-1.088-0.343-1.372   c-0.474-0.285-1.088-0.13-1.372,0.343l-1.835,3.058C35.769,29.441,34.783,30,33.735,30H30c-0.552,0-1-0.448-1-1s0.448-1,1-1h2.42   c0.717,0,1.382-0.387,1.736-1.008l2.561-4.48C37.249,21.579,38.247,21,39.321,21H42c0.552,0,1,0.449,1,1v14   c0,0.313-0.149,0.612-0.399,0.8l-3.2,2.4c-0.442,0.331-0.532,0.958-0.2,1.399c0.196,0.263,0.496,0.4,0.801,0.4   c0.209,0,0.419-0.065,0.599-0.2l3.2-2.4C44.552,37.837,45,36.939,45,36V22C45,20.346,43.654,19,42,19z M36,12c0-2.757,1.794-5,4-5   s4,2.243,4,5s-1.794,5-4,5S36,14.757,36,12z M38,12c0,1.626,0.916,3,2,3s2-1.374,2-3s-0.916-3-2-3S38,10.374,38,12z M15,21v-5V8   c0-0.552,0.448-1,1-1h16c0.553,0,1,0.448,1,1v8c0,0.552-0.447,1-1,1H21.414l-4.707,4.707C16.516,21.898,16.26,22,16,22   c-0.129,0-0.259-0.025-0.383-0.076C15.244,21.769,15,21.404,15,21z M17,16v2.586l3.293-3.293c0.092-0.092,0.203-0.165,0.325-0.216   C20.74,15.027,20.87,15,21,15h10V9H17V16z M32,18c-0.553,0-1,0.448-1,1v1.234l-3.485-2.091C27.359,18.049,27.182,18,27,18h-3   c-0.552,0-1,0.448-1,1s0.448,1,1,1h2.723l4.763,2.857C31.644,22.953,31.822,23,32,23c0.17,0,0.34-0.043,0.493-0.13   C32.807,22.693,33,22.36,33,22v-3C33,18.448,32.553,18,32,18z M20,13c0.552,0,1-0.448,1-1c0-0.552-0.448-1-1-1s-1,0.448-1,1   C19,12.552,19.448,13,20,13z M24,13c0.552,0,1-0.448,1-1c0-0.552-0.448-1-1-1s-1,0.448-1,1C23,12.552,23.448,13,24,13z M28,13   c0.552,0,1-0.448,1-1c0-0.552-0.448-1-1-1s-1,0.448-1,1C27,12.552,27.448,13,28,13z"/></g></svg>